<?xml version="1.0" encoding="utf-8"?>
<!-- Generator: Adobe Illustrator 22.1.0, SVG Export Plug-In . SVG Version: 6.00 Build 0)  -->
<svg version="1.1" id="Layer_1" xmlns="http://www.w3.org/2000/svg" xmlns:xlink="http://www.w3.org/1999/xlink" x="0px" y="0px"
	 viewBox="0 0 174 187.9" style="enable-background:new 0 0 174 187.9;" xml:space="preserve">
<style type="text/css">
	.st0{stroke:#FFFFFF;stroke-width:4.6983;stroke-miterlimit:10;}
	.st1{stroke:#FFFFFF;stroke-width:5.2855;stroke-miterlimit:10;}
</style>
<path d="M173.2,134.6l-41.5-41.5c-1-1-2.6-1-3.6,0l-41.5,41.5c-0.7,0.7-1,1.8-0.6,2.8c0.4,1,1.3,1.6,2.4,1.6H97v38.9
	c0,1.4,1.2,2.6,2.6,2.6h60.8c1.4,0,2.6-1.2,2.6-2.6V139h8.5c1,0,2-0.6,2.4-1.6C174.2,136.4,174,135.3,173.2,134.6L173.2,134.6z
	 M160.4,133.8c-1.4,0-2.6,1.2-2.6,2.6v38.9h-55.7v-38.9c0-1.4-1.2-2.6-2.6-2.6h-4.8L130,98.6l35.2,35.2H160.4z"/>
<g>
	<g>
		<path class="st0" d="M69.8-1.6C30.1-1.6-2.2,30.7-2.2,70.3c0,49.9,64.9,115.4,67.7,118.2c1.2,1.2,2.7,1.8,4.2,1.8s3.1-0.6,4.2-1.8
			c0,0,5.3-5.3,12.7-13.8c2.2-2.5,1.9-6.3-0.6-8.5c-2.5-2.2-6.3-1.9-8.5,0.6c-3.1,3.6-5.9,6.6-7.9,8.8c-14.3-15.3-60-67.1-60-105.2
			c0-33.1,26.9-60,60-60s60,26.9,60,60c0,1.7-0.1,3.5-0.4,5.4c-0.6,3.3,1.6,6.4,4.9,6.9c3.2,0.5,6.4-1.7,6.9-4.9
			c0.4-2.5,0.6-5,0.6-7.4C141.7,30.7,109.4-1.6,69.8-1.6z"/>
	</g>
</g>
<g>
	<g>
		<path class="st1" d="M69.8,34.4c-19.8,0-36,16.1-36,36s16.1,36,36,36s36-16.1,36-36S89.6,34.4,69.8,34.4z M69.8,94.3
			c-13.2,0-24-10.8-24-24s10.8-24,24-24s24,10.8,24,24S83,94.3,69.8,94.3z"/>
	</g>
</g>
</svg>
