<svg xmlns="http://www.w3.org/2000/svg" xmlns:xlink="http://www.w3.org/1999/xlink" width="231.5" height="158.285" viewBox="0 0 231.5 158.285">
  <defs>
    <clipPath id="clip-path">
      <rect id="Rectangle_1" data-name="Rectangle 1" width="231.5" height="158.285"/>
    </clipPath>
  </defs>
  <g id="iPhone_X_XS_11_Pro_1" data-name="iPhone X, XS, 11 Pro – 1" clip-path="url(#clip-path)">
    <g id="Group_2" data-name="Group 2" transform="translate(0 0.007)">
      <path id="delivery-truck" d="M174.224,663.207a4.572,4.572,0,0,0-3.159-1.227H146.9a4.72,4.72,0,0,0-4.714,4.707V705.31a4.727,4.727,0,0,0,4.714,4.714h38.351a4.727,4.727,0,0,0,4.714-4.713V679.447a4.719,4.719,0,0,0-1.555-3.486Zm9.511,40.5H148.34v-.481l-.049-35.694h21.9l13.555,12.007ZM53.725,733.815a21.359,21.359,0,0,0-15.075,6.221,20.919,20.919,0,0,0,0,29.983,21.441,21.441,0,0,0,15.075,6.22,21.2,21.2,0,1,0,0-42.395Zm0,32.975A11.778,11.778,0,1,1,65.5,755.012,11.778,11.778,0,0,1,53.725,766.79ZM22.312,740.53H11.553V727.079c0-2.594-1.151-3.981-3.744-3.981a3.486,3.486,0,0,0-3.884,3.981v16.17a4.721,4.721,0,0,0,4.714,4.707H22.814c2.594,0,4.184-1.032,4.184-3.626S24.906,740.53,22.312,740.53Zm186.908-71.34h0l-33.728-27.934a4.637,4.637,0,0,0-3.012-1.081H132.819V623.218a4.721,4.721,0,0,0-4.714-4.707H8.136a4.721,4.721,0,0,0-4.714,4.707V657.7a3.96,3.96,0,0,0,4.184,4.282,4,4,0,0,0,4.247-4.282V625.916H125.406l-.16,114.62H84.664c-2.594,0-4.686,1.2-4.686,3.793s2.092,3.626,4.686,3.626H139.75c2.594,0,4.881-1.032,4.881-3.626s-2.28-3.793-4.881-3.793h-6.973l.4-93.262h37.967l32.563,27.131v66.333h-6.317c-2.594,0-4.714.906-4.714,3.486s1.813,3.675,4.4,3.675h8.486a4.686,4.686,0,0,0,4.714-4.665l.7-70.37a4.97,4.97,0,0,0-1.743-3.674Z" transform="translate(20.369 -618.511)"/>
      <g id="Group_1" data-name="Group 1" transform="translate(0 52.29)">
        <rect id="Rectangle_1-2" data-name="Rectangle 1" width="62.756" height="8.367" rx="0.6" transform="translate(20.919)"/>
        <rect id="Rectangle_2" data-name="Rectangle 2" width="62.756" height="8.367" rx="0.6" transform="translate(6.973 17.432)"/>
        <rect id="Rectangle_3" data-name="Rectangle 3" width="62.756" height="8.367" rx="0.6" transform="translate(0 34.864)"/>
      </g>
      <path id="delivery-truck-2" data-name="delivery-truck" d="M28.961,635.047a21.359,21.359,0,0,0-15.075,6.22,20.919,20.919,0,0,0,0,29.983,21.441,21.441,0,0,0,15.075,6.22,21.2,21.2,0,1,0,0-42.395Zm0,32.975a11.778,11.778,0,1,1,11.777-11.778A11.778,11.778,0,0,1,28.961,668.022Z" transform="translate(163.679 -519.743)"/>
    </g>
  </g>
</svg>
