<?xml version="1.0" encoding="utf-8"?>
<!-- Generator: Adobe Illustrator 22.1.0, SVG Export Plug-In . SVG Version: 6.00 Build 0)  -->
<svg version="1.1" id="Layer_1" xmlns="http://www.w3.org/2000/svg" xmlns:xlink="http://www.w3.org/1999/xlink" x="0px" y="0px"
	 viewBox="0 0 169.9 166.3" style="enable-background:new 0 0 169.9 166.3;" xml:space="preserve">
<style type="text/css">
	.st0{stroke:#FFFFFF;stroke-width:1.3071;stroke-miterlimit:10;}
	.st1{stroke:#FFFFFF;stroke-width:0.7842;stroke-miterlimit:10;}
</style>
<g>
	<path class="st0" d="M100,144.7H70.4c-2,0-3.7-1.7-3.7-3.7s1.7-3.7,3.7-3.7H100c6.1,0,11.1,0.2,11.1-5.9v-26.6c0-2,1.7-3.7,3.7-3.7
		c2,0,3.7,1.7,3.7,3.7v26.6C118.5,141.7,110.2,144.7,100,144.7z"/>
</g>
<path class="st0" d="M100-0.3H14.8C6.7-0.3,0,6.3,0,14.5v122.9c0,6.4,4.1,12,10.2,14l44.4,14.8c1.5,0.5,3.1,0.8,4.7,0.8
	c8.2,0,14.8-6.6,14.8-14.8V29.3c0-6.4-4.1-12-10.2-14L39.3,7.1H100c6.1,0,11.1,5,11.1,11.1v21.3c0,2,1.7,3.7,3.7,3.7
	s3.7-1.7,3.7-3.7V18.2C118.5,8,110.2-0.3,100-0.3z M17.1,7.5l44.4,14.8c3.1,1,5.1,3.8,5.1,7v122.9c0,4.8-4.9,8.7-9.7,7l-44.4-14.8
	c-3.1-1-5.1-3.8-5.1-7V14.5c0-4.1,3.3-7.4,7.4-7.4C15.6,7.1,16.4,7.2,17.1,7.5z"/>
<path class="st1" d="M169.7,73.3c0.1-0.3,0.1-0.5,0.2-0.8c0-0.1,0.1-0.2,0.1-0.4c0-0.3-0.1-0.5-0.2-0.8c0-0.1,0-0.2-0.1-0.3
	c-0.2-0.4-0.4-0.7-0.7-1l-23.9-23.9c-1.2-1.2-3.1-1.2-4.2,0s-1.2,3.1,0,4.2l18.8,18.8h-52.6c-1.7,0-3,1.3-3,3c0,1.7,1.3,3,3,3h52.6
	L140.9,94c-1.2,1.2-1.2,3.1,0,4.2c0.6,0.6,1.4,0.9,2.1,0.9c0.8,0,1.5-0.3,2.1-0.9L169,74.3c0.1-0.1,0.1-0.2,0.2-0.3
	C169.4,73.8,169.6,73.6,169.7,73.3z"/>
</svg>
