<?xml version="1.0" encoding="utf-8"?>
<!-- Generator: Adobe Illustrator 22.1.0, SVG Export Plug-In . SVG Version: 6.00 Build 0)  -->
<svg version="1.1" id="Layer_1" xmlns="http://www.w3.org/2000/svg" xmlns:xlink="http://www.w3.org/1999/xlink" x="0px" y="0px"
	 viewBox="0 0 372 291.6" style="enable-background:new 0 0 372 291.6;" xml:space="preserve">
<style type="text/css">
	.st0{fill:#F9F9FA;}
	.st1{fill:#F7C589;}
	.st2{opacity:0.32;fill:#EDB779;}
	.st3{fill:#F8D5AA;}
	.st4{fill:#D68745;}
	.st5{fill:#875737;}
	.st6{opacity:0.55;fill:#A56D3F;}
	.st7{fill:#8D5022;}
	.st8{fill:#E9EBEC;}
	.st9{fill:#515252;}
	.st10{fill:#121F23;}
	.st11{opacity:0.5;fill:url(#SVGID_1_);}
	.st12{fill:#4D5051;enable-background:new    ;}
	.st13{opacity:0.5;fill:#262626;}
	.st14{opacity:0.5;fill:url(#SVGID_2_);}
	.st15{fill:url(#SVGID_3_);}
	.st16{fill:#5DBA2F;enable-background:new    ;}
	.st17{opacity:0.5;fill:url(#SVGID_4_);}
	.st18{fill:url(#SVGID_5_);}
	.st19{fill:url(#SVGID_6_);}
	.st20{fill:#1A2E35;}
	.st21{fill:url(#SVGID_7_);}
	.st22{fill:#FFF5E0;}
	.st23{opacity:0.5;fill:url(#SVGID_8_);}
	.st24{fill:#392F51;}
	.st25{opacity:0.5;fill:url(#SVGID_9_);}
	.st26{fill:url(#SVGID_10_);}
	.st27{fill:url(#SVGID_11_);}
	.st28{opacity:0.5;fill:url(#SVGID_12_);}
	.st29{fill:url(#SVGID_13_);}
	.st30{opacity:0.5;fill:url(#SVGID_14_);}
	.st31{opacity:0.5;fill:url(#SVGID_15_);}
	.st32{fill:url(#SVGID_16_);}
	.st33{fill:#FFA490;}
	.st34{fill:url(#SVGID_17_);}
	.st35{fill:url(#SVGID_18_);}
	.st36{opacity:0.5;fill:url(#SVGID_19_);}
	.st37{opacity:0.5;fill:url(#SVGID_20_);}
	.st38{opacity:0.5;fill:url(#SVGID_21_);}
	.st39{opacity:0.5;fill:url(#SVGID_22_);}
	.st40{opacity:0.5;fill:url(#SVGID_23_);}
	.st41{opacity:0.5;fill:url(#SVGID_24_);}
	.st42{opacity:0.5;fill:url(#SVGID_25_);}
	.st43{opacity:0.2;fill:url(#SVGID_26_);}
	.st44{fill:url(#SVGID_27_);}
	.st45{opacity:0.5;fill:url(#SVGID_28_);}
	.st46{fill:url(#SVGID_29_);}
	.st47{fill:url(#SVGID_30_);}
	.st48{opacity:0.1;fill:#1A2E35;enable-background:new    ;}
	.st49{fill:#FFFFFF;}
	.st50{opacity:0.1;enable-background:new    ;}
	.st51{fill:url(#SVGID_31_);}
	.st52{fill:none;stroke:#1A2E35;stroke-width:4.4352;stroke-linecap:round;stroke-linejoin:round;stroke-miterlimit:10;}
	.st53{opacity:0.4;fill:#FFFFFF;enable-background:new    ;}
	.st54{opacity:0.2;fill:#FFFFFF;enable-background:new    ;}
	.st55{opacity:0.6;fill:#FFFFFF;enable-background:new    ;}
	.st56{fill:#5DBA2F;}
	.st57{fill:#8F6F47;}
	.st58{fill:#BF9E6E;}
	.st59{opacity:0.2;enable-background:new    ;}
	.st60{opacity:0.4;enable-background:new    ;}
	.st61{fill:#C3724A;}
	.st62{fill:#D5834A;}
	.st63{fill:#EB9B6D;}
	.st64{fill:#D78846;}
	.st65{opacity:0.55;fill:#A66D40;}
	.st66{fill:#F8C58A;}
	.st67{fill:#885736;}
	.st68{fill:#8D4F22;}
	.st69{fill:#EAECED;}
	.st70{fill:#515151;}
	.st71{fill:#FFB87F;}
	.st72{opacity:0.55;fill:#D5AF7F;}
	.st73{opacity:0.65;fill:#C5A084;}
	.st74{fill:#F9E6E0;}
	.st75{clip-path:url(#SVGID_33_);}
	.st76{opacity:0.3;fill:url(#SVGID_34_);}
	.st77{opacity:0.32;fill:#EEB87A;}
	.st78{fill:#84543B;}
	.st79{fill:#FAD6AB;}
	.st80{opacity:0.32;fill:#FBE2C4;}
	.st81{fill:#EDE2DB;}
	.st82{fill:#90898B;}
	.st83{fill:#FDEBD6;}
	.st84{opacity:0.32;fill:#B28567;}
	.st85{opacity:0.5;}
	.st86{fill:#FC102C;}
	.st87{fill:#34283B;}
	.st88{fill:#AC5E23;}
	.st89{fill:#482513;}
	.st90{fill:#CAC7CC;}
	.st91{fill:#7E7783;}
	.st92{fill:#5A3A2A;}
</style>
<path class="st0" d="M86.5,40.2c-71.3,14-103.2,87.4-77.9,150.5c3.3,8.3,7.7,16.6,13.5,24.9c46.1,66.5,278.7,135.1,332.5-12.6
	C400,78.5,351,9,270.3,1.3c-22.3-2.1-44.7,0.8-65.9,8c-18.2,6.2-51.7,16.3-103.2,27.9C101.2,37.1,95.4,38.5,86.5,40.2z"/>
<g>
	<g class="st85">
		<polygon class="st66" points="155,74.6 178.4,64.9 243.4,63.6 241.5,137.2 180.4,138.5 156.4,127.5 		"/>
		<g>
			<g>
				<path class="st49" d="M191.7,102c-2.8,0-4.5-1.5-4.6-4.4c0-3.4,2.1-6,5.6-6c2.7,0,4.5,1.5,4.6,4.2
					C197.3,99.1,195.3,102,191.7,102z M190.2,97.7c0,1.2,0.6,1.9,1.7,1.9c1.7,0,2.3-2.4,2.3-3.7c0-1-0.4-1.9-1.6-1.9
					C190.8,94,190.1,96.2,190.2,97.7z"/>
				<path class="st49" d="M206.6,101.6l-2.9,0l-1.5-4c-0.2-0.6-0.5-1.3-0.6-1.9c-0.1,0.7-0.2,1.4-0.3,2.1l-0.7,3.8l-2.9,0l2-10l3,0
					l1.4,3.9c0.4,1.1,0.4,1.2,0.6,1.9c0.1-0.8,0.2-1.6,0.3-2.3l0.7-3.5l2.9,0L206.6,101.6z"/>
				<path class="st49" d="M218,94l-5.2,0.1l-0.3,1.3l4.9,0l-0.5,2.3l-4.9,0l-0.3,1.5l5.4-0.1l-0.5,2.5l-8.4,0.1l2-10l8.3-0.1L218,94
					z"/>
				<path class="st49" d="M225.3,96.2l2.5,5.3l-3.5,0l-0.6-1.5c-0.2-0.5-0.4-1-0.5-1.5c-0.2,0.5-0.8,1.2-1.1,1.6l-1.1,1.4l-3.8,0
					l4.7-5.3l-2.3-4.7l3.4,0l0.4,1.1c0.2,0.5,0.4,1.1,0.6,1.6c0.4-0.6,0.8-1.2,1-1.6l0.9-1.2l3.7,0L225.3,96.2z"/>
			</g>
			<g>
				<path class="st49" d="M231.6,92.4l-0.9-2l-0.5-0.2c0,0,0.9,1.9,1.2,2.6c0.1,0.2,0.4,0.2,0.5,0.1c0.3-0.4,1.1-1.5,1.1-1.5
					l-1.2-0.5L231.6,92.4z"/>
				<path class="st49" d="M236.3,86.7c-1.6,0.4-5.5,1.6-7.2,2.1c-0.3,0.1-0.4,0.4-0.1,0.6c0.5,0.2,1.1,0.5,1.8,0.7l5.2-3l-4.1,3.4
					c1.2,0.5,2.3,0.9,2.9,1.2c0.3,0.1,0.5,0,0.6-0.3c0.3-1,0.9-3.6,1.1-4.5C236.6,86.8,236.4,86.7,236.3,86.7z"/>
			</g>
		</g>
		<polygon class="st64" points="155,74.6 178.4,64.9 180.4,138.5 156.4,127.5 		"/>
		<polygon class="st68" points="241.6,135 241.7,131.4 211.1,99.1 243.4,65.6 243.4,63.6 241.9,63.6 209.4,97.4 178.4,64.9 
			178.5,68.5 207.8,98.9 175,130.7 175,134.4 209.5,100.7 		"/>
		<path class="st67" d="M218.8,64.1l-0.1,14.7c3.9-0.2,7.8-0.4,11.8-0.8l0.1-14.1L218.8,64.1z"/>
		<path class="st67" d="M226.1,119.3c-4.9,0.5-9.8,0.9-14.6,1.3l0.2,17.2l14.7-0.3L226.1,119.3z"/>
		<g>
			<polygon class="st69" points="201.2,131.6 184.2,131 184,120.7 201,121.1 			"/>
			<polygon class="st70" points="185.9,129.9 185.1,129.9 184.9,122.3 185.8,122.3 			"/>
			<polygon class="st70" points="186.1,129.9 185.8,129.9 185.6,122.3 185.9,122.3 			"/>
			<polygon class="st70" points="186.8,130 186.5,130 186.3,122.3 186.7,122.3 			"/>
			<polygon class="st70" points="187.5,130 187.2,130 187,122.3 187.4,122.3 			"/>
			<polygon class="st70" points="188.3,130 187.9,130 187.7,122.3 188.2,122.4 			"/>
			<polygon class="st70" points="188.9,130 188.6,130 188.4,122.4 188.8,122.4 			"/>
			<polygon class="st70" points="189.6,130 189.3,130 189.1,122.4 189.5,122.4 			"/>
			<polygon class="st70" points="190.4,130.1 189.8,130.1 189.7,122.4 190.3,122.4 			"/>
			<polygon class="st70" points="191,130.1 190.7,130.1 190.5,122.4 190.9,122.4 			"/>
			<polygon class="st70" points="191.7,130.1 191.4,130.1 191.3,122.4 191.6,122.4 			"/>
			<polygon class="st70" points="192.4,130.1 192.1,130.1 192,122.4 192.3,122.5 			"/>
			<polygon class="st70" points="193.3,130.2 192.7,130.1 192.5,122.5 193.1,122.5 			"/>
			<polygon class="st70" points="193.8,130.2 193.5,130.2 193.4,122.5 193.7,122.5 			"/>
			<polygon class="st70" points="194.6,130.2 194.2,130.2 194.1,122.5 194.4,122.5 			"/>
			<polygon class="st70" points="195.3,130.2 194.9,130.2 194.8,122.5 195.1,122.5 			"/>
			<polygon class="st70" points="195.9,130.2 195.2,130.2 195.1,122.5 195.8,122.5 			"/>
			<polygon class="st70" points="196.7,130.3 196.3,130.3 196.2,122.6 196.6,122.6 			"/>
			<polygon class="st70" points="197.4,130.3 197.1,130.3 196.9,122.6 197.3,122.6 			"/>
			<polygon class="st70" points="198.1,130.3 197.8,130.3 197.7,122.6 198,122.6 			"/>
			<polygon class="st70" points="198.8,130.3 198.5,130.3 198.4,122.6 198.7,122.6 			"/>
			<polygon class="st70" points="199.5,130.3 198.7,130.3 198.5,122.6 199.4,122.6 			"/>
			<polygon class="st70" points="200.3,130.4 199.9,130.4 199.8,122.6 200.1,122.6 			"/>
		</g>
		<path class="st77" d="M200.8,106.4c-8.2-4.7-14.5-11.6-19-18.4l0.9,47.1l57,0l0.2-20.4C226.7,116.3,211.8,112.7,200.8,106.4z"/>
		<g>
			<polygon class="st66" points="195.1,125.9 218.5,116.2 283.4,114.9 281.5,188.5 220.5,189.8 196.5,178.9 			"/>
			<polygon class="st68" points="281.6,186.4 281.7,182.8 251.1,150.5 283.4,116.9 283.4,114.9 281.9,115 249.4,148.8 218.5,116.2 
				218.6,119.8 247.8,150.3 215.1,182.1 215.1,185.8 249.5,152 			"/>
			<polygon class="st64" points="195.1,125.9 218.5,116.2 220.5,189.8 196.5,178.9 			"/>
			<path class="st67" d="M261.7,115.4l-0.1,16.5c3.9-0.2,7.8-0.4,11.8-0.8l0.1-15.9L261.7,115.4z"/>
			<path class="st67" d="M266.1,170.7c-4.9,0.5-9.8,0.9-14.6,1.3l0.2,17.2l14.6-0.3L266.1,170.7z"/>
			<g>
				<polygon class="st69" points="241.2,182.9 224.2,182.4 224,172.1 241.1,172.5 				"/>
				<polygon class="st70" points="226,181.3 225.1,181.3 225,173.6 225.8,173.7 				"/>
				<polygon class="st70" points="226.1,181.3 225.8,181.3 225.7,173.6 226,173.7 				"/>
				<polygon class="st70" points="226.8,181.3 226.5,181.3 226.4,173.7 226.7,173.7 				"/>
				<polygon class="st70" points="227.5,181.3 227.2,181.3 227.1,173.7 227.4,173.7 				"/>
				<polygon class="st70" points="228.4,181.4 227.9,181.4 227.8,173.7 228.3,173.7 				"/>
				<polygon class="st70" points="228.9,181.4 228.6,181.4 228.5,173.7 228.8,173.7 				"/>
				<polygon class="st70" points="229.7,181.4 229.3,181.4 229.2,173.7 229.5,173.7 				"/>
				<polygon class="st70" points="230.5,181.4 229.9,181.4 229.8,173.7 230.3,173.8 				"/>
				<polygon class="st70" points="231.1,181.4 230.7,181.4 230.6,173.8 230.9,173.8 				"/>
				<polygon class="st70" points="231.8,181.5 231.4,181.5 231.3,173.8 231.6,173.8 				"/>
				<polygon class="st70" points="232.5,181.5 232.1,181.5 232,173.8 232.3,173.8 				"/>
				<polygon class="st70" points="233.3,181.5 232.7,181.5 232.6,173.8 233.2,173.8 				"/>
				<polygon class="st70" points="233.9,181.5 233.5,181.5 233.4,173.8 233.8,173.8 				"/>
				<polygon class="st70" points="234.6,181.6 234.3,181.5 234.1,173.9 234.5,173.9 				"/>
				<polygon class="st70" points="235.3,181.6 235,181.6 234.8,173.9 235.2,173.9 				"/>
				<polygon class="st70" points="236,181.6 235.3,181.6 235.2,173.9 235.9,173.9 				"/>
				<polygon class="st70" points="236.7,181.6 236.4,181.6 236.3,173.9 236.6,173.9 				"/>
				<polygon class="st70" points="237.4,181.6 237.1,181.6 237,173.9 237.3,173.9 				"/>
				<polygon class="st70" points="238.1,181.7 237.8,181.6 237.7,173.9 238,174 				"/>
				<polygon class="st70" points="238.9,181.7 238.5,181.7 238.4,174 238.7,174 				"/>
				<polygon class="st70" points="239.5,181.7 238.7,181.7 238.6,174 239.4,174 				"/>
				<polygon class="st70" points="240.3,181.7 239.9,181.7 239.8,174 240.2,174 				"/>
			</g>
			<path class="st77" d="M240.8,157.8c-8.2-4.7-14.5-11.6-19-18.4l0.9,47.1l57,0l0.2-20.4C266.6,167.6,251.9,164.1,240.8,157.8z"/>
		</g>
		<g>
			<polygon class="st66" points="91,114.6 119.9,104.9 199.8,103.6 197.5,177.2 122.3,178.5 92.8,167.5 			"/>
			<polygon class="st68" points="197.6,175 197.7,171.4 160.1,139.1 199.8,105.6 199.8,103.6 197.9,103.6 157.9,137.4 119.9,104.9 
				120,108.5 156,138.9 115.7,170.7 115.7,174.4 158.1,140.7 			"/>
			<polygon class="st64" points="91,114.6 119.9,104.9 122.3,178.5 92.8,167.5 			"/>
			<path class="st67" d="M130.4,104.7l-0.1,14.1c4.8-0.2,9.6-0.4,14.5-0.8l0.1-13.5L130.4,104.7z"/>
			<path class="st67" d="M178.5,159.3c-6,0.5-12.1,0.9-18,1.3l0.3,17.2l18-0.3L178.5,159.3z"/>
			<path class="st77" d="M147.4,146.4c-10.1-4.7-17.9-11.6-23.4-18.4l1.1,47.1l70.1,0l0.3-20.4C179.2,156.3,161,152.8,147.4,146.4z"
				/>
		</g>
		<g>
			<polygon class="st66" points="230.5,181.3 249.9,172.5 302.2,169.9 300.7,232.8 250,236.1 230.2,227.2 			"/>
			<polygon class="st64" points="230.5,181.3 249.9,172.5 250,236.1 230.2,227.2 			"/>
			<path class="st67" d="M264.6,182.2c4.4-0.3,8.8-0.6,13.3-1l0.2-10l-13.2,0.7L264.6,182.2z"/>
			<path class="st67" d="M288.1,217.7c-4,0.6-8,1.1-12,1.6l0,15.1l12.1-0.8L288.1,217.7z"/>
			<g>
				<polygon class="st69" points="267.4,229.3 253.3,229.4 253.3,220.3 267.4,220.1 				"/>
				<polygon class="st70" points="254.8,228.4 254.1,228.4 254.1,221.6 254.8,221.6 				"/>
				<polygon class="st70" points="254.9,228.4 254.6,228.4 254.6,221.6 254.9,221.6 				"/>
				<polygon class="st70" points="255.5,228.4 255.2,228.4 255.2,221.6 255.5,221.6 				"/>
				<polygon class="st70" points="256.1,228.3 255.8,228.4 255.8,221.6 256.1,221.6 				"/>
				<polygon class="st70" points="256.8,228.3 256.4,228.3 256.4,221.6 256.8,221.6 				"/>
				<polygon class="st70" points="257.2,228.3 257,228.3 257,221.6 257.3,221.6 				"/>
				<polygon class="st70" points="257.8,228.3 257.5,228.3 257.6,221.6 257.8,221.6 				"/>
				<polygon class="st70" points="258.5,228.3 258,228.3 258,221.6 258.5,221.6 				"/>
				<polygon class="st70" points="259,228.3 258.7,228.3 258.7,221.6 259,221.6 				"/>
				<polygon class="st70" points="259.6,228.3 259.3,228.3 259.3,221.6 259.6,221.6 				"/>
				<polygon class="st70" points="260.2,228.3 259.9,228.3 259.9,221.6 260.2,221.6 				"/>
				<polygon class="st70" points="260.9,228.3 260.4,228.3 260.4,221.6 260.9,221.6 				"/>
				<polygon class="st70" points="261.3,228.3 261.1,228.3 261.1,221.5 261.4,221.5 				"/>
				<polygon class="st70" points="261.9,228.3 261.6,228.3 261.7,221.5 262,221.5 				"/>
				<polygon class="st70" points="262.5,228.3 262.2,228.3 262.3,221.5 262.5,221.5 				"/>
				<polygon class="st70" points="263.1,228.3 262.5,228.3 262.5,221.5 263.1,221.5 				"/>
				<polygon class="st70" points="263.7,228.3 263.4,228.3 263.4,221.5 263.7,221.5 				"/>
				<polygon class="st70" points="264.3,228.3 264,228.3 264,221.5 264.3,221.5 				"/>
				<polygon class="st70" points="264.9,228.3 264.6,228.3 264.6,221.5 264.9,221.5 				"/>
				<polygon class="st70" points="265.5,228.3 265.2,228.3 265.2,221.5 265.5,221.5 				"/>
				<polygon class="st70" points="266,228.3 265.3,228.3 265.4,221.5 266.1,221.5 				"/>
				<polygon class="st70" points="266.7,228.2 266.4,228.3 266.4,221.5 266.7,221.5 				"/>
			</g>
			<path class="st77" d="M267.4,207.3c-6.7-3.8-11.8-9.6-15.3-15.3l-0.2,41l47.2-2l0.2-17.8C288.5,215,276.4,212.5,267.4,207.3z"/>
		</g>
		<g>
			<polygon class="st66" points="134.6,155.3 167.9,142.8 253.5,142.8 251.1,237.8 168.6,242.3 134.6,228.1 			"/>
			<polygon class="st64" points="134.6,155.3 167.9,142.8 168.6,242.3 134.6,228.1 			"/>
			<path class="st67" d="M236.2,164.1v-21.3h-21.5v22C221.9,164.7,229,164.5,236.2,164.1z"/>
			<path class="st67" d="M201.4,220.1l0.2,20.4l19.6-1.1l-0.2-20.7C214.5,219.2,208,219.7,201.4,220.1z"/>
			<g>
				<rect x="173.9" y="222.5" class="st69" width="23.6" height="14.2"/>
				<rect x="175.3" y="224.6" class="st70" width="1.2" height="10.5"/>
				<rect x="176.2" y="224.6" class="st70" width="0.5" height="10.5"/>
				<rect x="177.2" y="224.6" class="st70" width="0.5" height="10.5"/>
				<rect x="178.2" y="224.6" class="st70" width="0.5" height="10.5"/>
				<rect x="179.2" y="224.6" class="st70" width="0.7" height="10.5"/>
				<rect x="180.1" y="224.6" class="st70" width="0.5" height="10.5"/>
				<rect x="181.1" y="224.6" class="st70" width="0.5" height="10.5"/>
				<rect x="181.9" y="224.6" class="st70" width="0.8" height="10.5"/>
				<rect x="183.1" y="224.6" class="st70" width="0.5" height="10.5"/>
				<rect x="184" y="224.6" class="st70" width="0.5" height="10.5"/>
				<rect x="185" y="224.6" class="st70" width="0.5" height="10.5"/>
				<rect x="185.8" y="224.6" class="st70" width="0.8" height="10.5"/>
				<rect x="187" y="224.6" class="st70" width="0.5" height="10.5"/>
				<rect x="188" y="224.6" class="st70" width="0.5" height="10.5"/>
				<rect x="188.9" y="224.6" class="st70" width="0.5" height="10.5"/>
				<rect x="189.4" y="224.6" class="st70" width="1" height="10.5"/>
				<rect x="190.9" y="224.6" class="st70" width="0.5" height="10.5"/>
				<rect x="191.9" y="224.6" class="st70" width="0.5" height="10.5"/>
				<rect x="192.9" y="224.6" class="st70" width="0.5" height="10.5"/>
				<rect x="193.9" y="224.6" class="st70" width="0.5" height="10.5"/>
				<rect x="194.1" y="224.6" class="st70" width="1.2" height="10.5"/>
				<rect x="195.8" y="224.6" class="st70" width="0.5" height="10.5"/>
			</g>
			<path class="st77" d="M197.5,198.1c-11.1-6.2-19.6-15.4-25.6-24.5v64l76.9-2.4l0.3-26.8C231.8,210.7,212.3,206.3,197.5,198.1z"/>
		</g>
		<g>
			<polygon class="st66" points="72.6,176.3 94.4,165.3 155.4,161.9 153.7,235.9 98.9,239.6 76.6,230 			"/>
			<polygon class="st64" points="72.6,176.3 94.4,165.3 98.9,239.6 76.6,230 			"/>
			<path class="st67" d="M101.3,180.5c5.1-0.3,10.2-0.7,15.2-1.3l-0.2-15.2l-15.5,0.9L101.3,180.5z"/>
			<path class="st67" d="M139.8,219.1c-4.4,0.6-8.8,1.3-13.2,1.9l0.5,16.7l13.1-0.9L139.8,219.1z"/>
			<g>
				<polygon class="st69" points="117.5,232.1 102.1,232.3 101.5,222.2 117.1,221.9 				"/>
				<polygon class="st70" points="103.6,231.1 102.9,231.1 102.5,223.6 103.3,223.6 				"/>
				<polygon class="st70" points="103.8,231.1 103.5,231.1 103.1,223.6 103.4,223.6 				"/>
				<polygon class="st70" points="104.4,231.1 104.1,231.1 103.8,223.6 104.1,223.6 				"/>
				<polygon class="st70" points="105.1,231.1 104.8,231.1 104.4,223.6 104.7,223.6 				"/>
				<polygon class="st70" points="105.8,231.1 105.4,231.1 105.1,223.6 105.5,223.6 				"/>
				<polygon class="st70" points="106.3,231.1 106,231.1 105.7,223.6 106,223.6 				"/>
				<polygon class="st70" points="107,231.1 106.7,231.1 106.3,223.6 106.6,223.6 				"/>
				<polygon class="st70" points="107.7,231.1 107.2,231.1 106.9,223.6 107.4,223.6 				"/>
				<polygon class="st70" points="108.3,231.1 108,231.1 107.6,223.6 107.9,223.6 				"/>
				<polygon class="st70" points="108.9,231.1 108.6,231.1 108.3,223.5 108.6,223.5 				"/>
				<polygon class="st70" points="109.5,231 109.2,231 108.9,223.5 109.2,223.5 				"/>
				<polygon class="st70" points="110.3,231 109.8,231 109.4,223.5 110,223.5 				"/>
				<polygon class="st70" points="110.8,231 110.5,231 110.2,223.5 110.5,223.5 				"/>
				<polygon class="st70" points="111.5,231 111.2,231 110.8,223.5 111.2,223.5 				"/>
				<polygon class="st70" points="112.1,231 111.8,231 111.5,223.5 111.8,223.5 				"/>
				<polygon class="st70" points="112.7,231 112.1,231 111.8,223.5 112.4,223.5 				"/>
				<polygon class="st70" points="113.4,231 113.1,231 112.8,223.5 113.1,223.5 				"/>
				<polygon class="st70" points="114,231 113.7,231 113.4,223.5 113.7,223.5 				"/>
				<polygon class="st70" points="114.7,231 114.4,231 114.1,223.4 114.4,223.4 				"/>
				<polygon class="st70" points="115.3,231 115,231 114.7,223.4 115.1,223.4 				"/>
				<polygon class="st70" points="116,231 115.2,231 114.9,223.4 115.7,223.4 				"/>
				<polygon class="st70" points="116.6,231 116.3,231 116,223.4 116.4,223.4 				"/>
			</g>
			<path class="st77" d="M116.6,207.3c-7.7-4.4-13.7-11.2-18.1-18l2.4,47l51.2-2.3l0.2-19.9C140.3,216.1,126.8,213.2,116.6,207.3z"
				/>
		</g>
		<g>
			<g>
				<path class="st49" d="M195,196.8c-3.6,0-5.7-1.9-5.7-5.6c0-4.2,2.7-7.6,7-7.6c3.4,0,5.7,1.9,5.7,5.3
					C202.1,193.2,199.5,196.8,195,196.8z M193.1,191.4c0,1.6,0.8,2.4,2.1,2.4c2.1,0,2.9-3,2.9-4.7c0-1.3-0.5-2.4-2-2.4
					C193.9,186.7,193.1,189.6,193.1,191.4z"/>
				<path class="st49" d="M213.8,196.4l-3.7,0l-1.8-5c-0.3-0.8-0.6-1.6-0.7-2.4c-0.1,0.9-0.2,1.8-0.4,2.7l-0.9,4.7l-3.7,0l2.5-12.6
					l3.8,0l1.8,4.9c0.5,1.4,0.5,1.5,0.8,2.4c0.1-1,0.2-2,0.4-2.9l0.9-4.4l3.7,0L213.8,196.4z"/>
				<path class="st49" d="M228.3,186.7l-6.6,0.1l-0.3,1.6l6.1-0.1l-0.6,2.9l-6.1,0.1l-0.4,1.8l6.8-0.1l-0.6,3.2l-10.6,0.1l2.5-12.6
					l10.4-0.1L228.3,186.7z"/>
				<path class="st49" d="M237.4,189.5l3.1,6.6l-4.4,0l-0.8-2c-0.3-0.6-0.5-1.2-0.6-1.9c-0.3,0.6-1,1.5-1.4,2l-1.4,1.8l-4.8,0
					l5.9-6.7l-3-5.9l4.2,0l0.5,1.4c0.3,0.7,0.5,1.4,0.7,2.1c0.5-0.7,1-1.5,1.3-2l1.2-1.5l4.6,0L237.4,189.5z"/>
			</g>
			<g>
				<path class="st49" d="M245.3,184.7l-1.1-2.5l-0.6-0.3c0,0,1.1,2.4,1.5,3.3c0.1,0.3,0.5,0.3,0.6,0.1c0.4-0.5,1.4-1.9,1.4-1.9
					l-1.5-0.6L245.3,184.7z"/>
				<path class="st49" d="M251.2,177.6c-2,0.6-6.9,2-9.1,2.6c-0.4,0.1-0.5,0.6-0.1,0.7c0.6,0.2,1.4,0.6,2.3,0.9l6.5-3.7l-5.1,4.3
					c1.5,0.6,2.9,1.2,3.7,1.5c0.3,0.1,0.6,0,0.7-0.3c0.3-1.3,1.1-4.5,1.4-5.7C251.6,177.6,251.5,177.5,251.2,177.6z"/>
			</g>
		</g>
	</g>
	<circle class="st0" cx="89.1" cy="217.7" r="34.3"/>
	<g>
		<circle class="st86" cx="89.1" cy="217.7" r="28.7"/>
		<path class="st49" d="M101.9,227.3l-9-9.1l9-9l-3.6-3l-9,9l-9-9l-3,3l9,9.1l-9,9l3,3l9.1-9l9,9L101.9,227.3z"/>
	</g>
	<g>
		<path class="st87" d="M281.8,121.5c0,0-15.9,4.8-16.1,6.5c-0.2,1.7,5.6,2.3,17.4-0.4C283.1,127.6,282.6,121.8,281.8,121.5z"/>
		<polygon class="st87" points="278.7,125.5 308.7,229.6 313.7,229.6 284.5,123.5 		"/>
		<path class="st87" d="M287,123.1c0,2.7-2,4.9-4.5,4.9c-2.5,0-4.5-2.2-4.5-4.9c0-2.7,2-4.9,4.5-4.9C285,118.2,287,120.4,287,123.1z
			"/>
		<g>
			<g>
				<path class="st66" d="M242,154.4l5.5,18.2l31.6-7c0,0,31.9-3.8,31.4-4.1c-0.5-0.4-6.5-20.4-6.5-20.4l-32.6-2L242,154.4z"/>
				<polygon class="st64" points="242,154.4 247.5,172.6 279.1,165.6 271.4,139.1 				"/>
				<polygon class="st67" points="291.2,143.6 292.4,148.7 303.2,149.2 301.8,144.2 				"/>
				<g>
					<polygon class="st69" points="247.9,160.4 256.2,157.1 254.5,152.5 246.4,156.1 					"/>
					<polygon class="st70" points="255.1,156.9 255.5,156.7 254.2,153.3 253.8,153.5 					"/>
					<polygon class="st70" points="255,157 255.2,156.9 253.9,153.5 253.7,153.6 					"/>
					<polygon class="st70" points="254.6,157.1 254.8,157 253.5,153.7 253.3,153.7 					"/>
					<polygon class="st70" points="254.3,157.3 254.4,157.2 253.2,153.8 253,153.9 					"/>
					<polygon class="st70" points="253.8,157.4 254.1,157.3 252.8,154 252.6,154.1 					"/>
					<polygon class="st70" points="253.5,157.5 253.7,157.5 252.5,154.1 252.3,154.2 					"/>
					<polygon class="st70" points="253.2,157.7 253.3,157.6 252.1,154.3 251.9,154.4 					"/>
					<polygon class="st70" points="252.8,157.9 253.1,157.7 251.8,154.4 251.5,154.6 					"/>
					<polygon class="st70" points="252.5,158 252.6,157.9 251.4,154.6 251.3,154.7 					"/>
					<polygon class="st70" points="252.1,158.1 252.3,158.1 251.1,154.8 250.9,154.8 					"/>
					<polygon class="st70" points="251.8,158.3 251.9,158.2 250.7,154.9 250.6,155 					"/>
					<polygon class="st70" points="251.4,158.4 251.7,158.3 250.5,155 250.2,155.2 					"/>
					<polygon class="st70" points="251.1,158.6 251.3,158.5 250.1,155.2 249.9,155.3 					"/>
					<polygon class="st70" points="250.8,158.7 250.9,158.6 249.7,155.4 249.6,155.4 					"/>
					<polygon class="st70" points="250.4,158.8 250.6,158.8 249.4,155.5 249.3,155.6 					"/>
					<polygon class="st70" points="250.1,159 250.4,158.8 249.3,155.6 249,155.7 					"/>
					<polygon class="st70" points="249.8,159.1 249.9,159 248.8,155.8 248.6,155.9 					"/>
					<polygon class="st70" points="249.4,159.2 249.6,159.2 248.4,156 248.3,156 					"/>
					<polygon class="st70" points="249.1,159.4 249.3,159.3 248.1,156.1 248,156.2 					"/>
					<polygon class="st70" points="248.8,159.5 248.9,159.4 247.8,156.2 247.7,156.3 					"/>
					<polygon class="st70" points="248.5,159.6 248.9,159.5 247.7,156.3 247.4,156.4 					"/>
					<polygon class="st70" points="248.1,159.8 248.3,159.7 247.2,156.5 247,156.6 					"/>
				</g>
			</g>
			<polygon class="st66" points="324,154.6 284.8,153.6 240.7,172.1 256.1,230.6 310,231.9 342.8,208.1 			"/>
			<polygon class="st66" points="324,154.6 284.8,153.6 240.7,172.1 256.1,230.6 310,231.9 342.8,208.1 			"/>
			<path class="st77" d="M333.6,188.5c-2.9,0.8-5.8,1.3-8.9,1.3c-18.3,0-33.5-15-33.9-33.2l-2.9-0.1l14.5,47.2l37.3,2.1L333.6,188.5
				z"/>
			<polygon class="st64" points="300.4,205.8 284.8,153.6 240.7,172.1 256.1,230.6 310,231.9 342.8,208.1 			"/>
			<polygon class="st88" points="300.4,205.8 256.1,230.6 310,231.9 342.8,208.1 			"/>
			<polygon class="st89" points="322.7,207.1 294.5,231.6 302.3,231.8 329.5,207.4 			"/>
			<g>
				<g>
					<path class="st87" d="M308.3,240.6c-2.5,4.4-7,6.3-9.9,4.1c-3-2.2-3.4-7.5-0.9-11.9c2.5-4.4,7-6.3,9.9-4.1
						C310.4,230.9,310.8,236.2,308.3,240.6z"/>
				</g>
				<polygon class="st87" points="311.1,233.6 248,234.1 249.2,227.9 316.1,229 				"/>
				<path class="st87" d="M259.1,229.9l25-14.3c0.4-0.2,0.8-0.3,1.2-0.3H328c1.8,0,2.6,2.3,1.2,3.4L313,231.9l-5.1-1.3l15.7-11.3
					c0.3-0.2,0.1-0.6-0.2-0.6L287,219c-0.4,0-0.8,0.1-1.2,0.3l-20.1,11.3L259.1,229.9z"/>
				<path class="st87" d="M226.3,123.8c0,0-15.9,4.8-16.1,6.5c-0.2,1.7,5.6,2.3,17.4-0.4C227.6,129.9,227.1,124.1,226.3,123.8z"/>
				<polygon class="st87" points="223.2,127.8 253.3,231.9 258.3,231.9 229,125.8 				"/>
				<ellipse class="st87" cx="227" cy="125.4" rx="4.5" ry="4.9"/>
				<polygon class="st87" points="251.2,220.6 248,229.4 251.6,230.2 253.8,224.3 				"/>
				<g>
					<path class="st87" d="M253.8,245.2c-3.4,6-9.4,8.5-13.4,5.6c-4-2.9-4.6-10.1-1.2-16.1c3.4-6,9.4-8.5,13.4-5.6
						C256.7,232,257.2,239.2,253.8,245.2z"/>
					<path class="st90" d="M250.1,242.5c-1.7,2.9-4.6,4.1-6.6,2.7c-2-1.4-2.2-4.9-0.6-7.9c1.7-2.9,4.6-4.1,6.6-2.7
						C251.5,236,251.7,239.6,250.1,242.5z"/>
					<path class="st91" d="M246.6,241.1c-1.4-1-1.7-3.3-0.9-5.4c-0.8,0.5-1.5,1.2-2.1,2.2c-1.3,2.4-1.1,5.2,0.5,6.4
						c1.6,1.2,4,0.2,5.3-2.2c0.2-0.3,0.3-0.6,0.5-1C248.7,241.7,247.5,241.8,246.6,241.1z"/>
				</g>
			</g>
			<polygon class="st92" points="250.9,174 253,179.9 273.8,171.3 271.9,165 			"/>
			<polygon class="st92" points="281.4,187.2 292.9,180.8 296.2,191.4 284.5,197.5 			"/>
		</g>
	</g>
</g>
<g>
	<g>
		<path class="st49" d="M303,182.9c-1.6,0-2.6-1.1-2.6-3.2c0-2.4,1.2-4.3,3.2-4.3c1.5,0,2.6,1,2.6,3
			C306.2,180.9,305.1,182.9,303,182.9z M302.2,179.8c0,0.9,0.4,1.4,1,1.4c0.9,0,1.3-1.7,1.3-2.6c0-0.7-0.2-1.4-0.9-1.4
			C302.6,177.2,302.2,178.8,302.2,179.8z"/>
		<path class="st49" d="M311.5,182.6l-1.7,0l-0.8-2.8c-0.1-0.4-0.3-0.9-0.3-1.4c0,0.5-0.1,1-0.2,1.5l-0.4,2.7l-1.7,0l1.2-7.1l1.7,0
			l0.8,2.8c0.2,0.8,0.2,0.9,0.3,1.3c0-0.5,0.1-1.1,0.2-1.7l0.4-2.5l1.7,0L311.5,182.6z"/>
		<path class="st49" d="M318.2,177.2l-3,0l-0.2,0.9l2.8,0l-0.3,1.6l-2.8,0l-0.2,1l3.1,0l-0.3,1.8l-4.8,0.1l1.2-7.1l4.7-0.1
			L318.2,177.2z"/>
		<path class="st49" d="M322.3,178.8l1.4,3.7l-2,0l-0.4-1.1c-0.1-0.3-0.2-0.7-0.3-1.1c-0.1,0.4-0.4,0.8-0.7,1.2l-0.7,1l-2.2,0
			l2.7-3.8l-1.3-3.3l1.9,0l0.2,0.8c0.1,0.4,0.2,0.8,0.3,1.2c0.2-0.4,0.4-0.9,0.6-1.1l0.5-0.9l2.1,0L322.3,178.8z"/>
	</g>
	<g>
		<path class="st49" d="M325.9,176.1l-0.5-1.4l-0.3-0.2c0,0,0.5,1.4,0.7,1.8c0.1,0.2,0.2,0.2,0.3,0c0.2-0.3,0.7-1,0.7-1l-0.7-0.4
			L325.9,176.1z"/>
		<path class="st49" d="M328.6,172.1c-0.9,0.3-3.2,1.1-4.2,1.5c-0.2,0.1-0.2,0.3,0,0.4c0.3,0.1,0.6,0.3,1,0.5l3-2.1l-2.3,2.4
			c0.7,0.3,1.3,0.7,1.7,0.9c0.2,0.1,0.3,0,0.3-0.2c0.2-0.7,0.5-2.5,0.7-3.2C328.8,172.1,328.7,172.1,328.6,172.1z"/>
	</g>
</g>
</svg>
