<?xml version="1.0" encoding="utf-8"?>
<!-- Generator: Adobe Illustrator 22.1.0, SVG Export Plug-In . SVG Version: 6.00 Build 0)  -->
<svg version="1.1" id="Layer_1" xmlns="http://www.w3.org/2000/svg" xmlns:xlink="http://www.w3.org/1999/xlink" x="0px" y="0px"
	 viewBox="0 0 213 216.8" style="enable-background:new 0 0 213 216.8;" xml:space="preserve">
<style type="text/css">
	.st0{stroke:#FFFFFF;stroke-width:4;stroke-miterlimit:10;}
</style>
<path class="st0" d="M-2.5,56.6v103c0,2.9,2.2,5.1,5,5.4c0.4,0.3,0.7,0.7,1.1,0.9L104,216.8c0.8,0.4,1.7,0.6,2.6,0.6
	s1.7-0.2,2.5-0.6l103.5-54.5c1.8-0.9,2.9-2.8,2.9-4.8V56.6c0-0.2-0.1-0.3-0.1-0.4c-0.1-0.6-0.2-1.2-0.5-1.8
	c-0.1-0.2-0.2-0.4-0.4-0.7c-0.3-0.5-0.8-0.9-1.3-1.3c-0.1-0.1-0.2-0.3-0.3-0.4c-0.1,0-0.1,0-0.2-0.1c-0.1,0-0.1-0.1-0.2-0.2L109,0
	c-1.5-0.8-3.3-0.8-4.9,0L0.5,51.8c-0.1,0-0.1,0.1-0.2,0.2c-0.1,0-0.1,0-0.2,0.1c-0.2,0.1-0.2,0.3-0.4,0.4c-0.5,0.4-0.9,0.8-1.2,1.3
	c-0.2,0.2-0.3,0.5-0.4,0.7c-0.3,0.6-0.4,1.2-0.5,1.8C-2.4,56.3-2.5,56.5-2.5,56.6z M15.1,56.6L57,35.7l91.3,45.7l-41.9,20.9
	L15.1,56.6z M197.9,56.6l-37.3,18.7L69.2,29.6l37.3-18.7L197.9,56.6z M112,111.8l43.1-21.5V122c0,3,2.4,5.4,5.4,5.4s5.5-2.4,5.5-5.5
	V84.8l38.6-19.3v88.7L112,202.9V111.8z M8.8,156.3c-0.1-0.1-0.2-0.1-0.4-0.1V65.4l92.7,46.4V203L8.8,156.3z"/>
</svg>
