<svg id="Capa_1" data-name="Capa 1" xmlns="http://www.w3.org/2000/svg" viewBox="0 0 250 250"><defs><style>.cls-1,.cls-2,.cls-3{stroke:#fff;stroke-miterlimit:10;}.cls-1{stroke-width:2px;}.cls-2{stroke-width:3px;}.cls-3{stroke-width:2.97px;}</style></defs><title>Stacoghner</title><path class="cls-1" d="M226.36,221.11a4.86,4.86,0,0,0-6.71,1.54,36.52,36.52,0,1,1-.23-39.13l.17.28a4.87,4.87,0,0,0,8.22-5.21l-.21-.33a46.12,46.12,0,0,0-34.21-21,27.92,27.92,0,0,0-27.74-25h-3.89a49.15,49.15,0,0,0-29.34-88.61,49.62,49.62,0,0,0-7.36.55A49.19,49.19,0,1,0,46.83,89.09H43A27.92,27.92,0,0,0,15.06,117V166.8a4.86,4.86,0,0,0,4.86,4.86H71.31v38.28a4.87,4.87,0,0,0,4.86,4.86h67.69a46.29,46.29,0,0,0,84,13,4.87,4.87,0,0,0-1.53-6.71ZM171.89,92.79a39.47,39.47,0,1,1-39.47-39.44A39.5,39.5,0,0,1,171.89,92.79ZM36.71,49.65a39.46,39.46,0,0,1,78.81-3,49.32,49.32,0,0,0-32.1,41.82,39.9,39.9,0,0,1-7.25.66A39.49,39.49,0,0,1,36.71,49.65Zm34.6,110.46v1.83H24.79V117A18.18,18.18,0,0,1,43,98.82H83.6a49.17,49.17,0,0,0,19.48,33.41H99.2A27.92,27.92,0,0,0,71.31,160.11Zm9.73,45v-45A18.17,18.17,0,0,1,99.2,142h66.45a18.18,18.18,0,0,1,17.94,15.34,46.32,46.32,0,0,0-41.19,46c0,.6,0,1.21,0,1.81Z"/><path class="cls-2" d="M188.67,219.56a4.86,4.86,0,0,0,4.86-4.86v-6.57h6.57a4.87,4.87,0,0,0,0-9.73h-6.57v-6.56a4.86,4.86,0,1,0-9.72,0v6.56h-6.57a4.87,4.87,0,0,0,0,9.73h6.57v6.57A4.86,4.86,0,0,0,188.67,219.56Z"/><path class="cls-3" d="M188.67,158.25a45,45,0,1,0,45,45A45,45,0,0,0,188.67,158.25Zm0,79.86a34.85,34.85,0,1,1,34.85-34.84A34.84,34.84,0,0,1,188.67,238.11Z"/></svg>