<svg xmlns="http://www.w3.org/2000/svg" width="372.465" height="356.274" viewBox="0 0 372.465 356.274">
  <g id="right_svg" data-name="right svg" transform="translate(-2954.99 -1843.438)">
    <g id="Group_249" data-name="Group 249" transform="translate(3003.5 1935.313)">
      <circle id="Ellipse_23" data-name="Ellipse 23" cx="132.199" cy="132.199" r="132.199" transform="translate(45.068 0)" fill="#f6f9fc"/>
      <g id="Group_248" data-name="Group 248" transform="translate(44.471 145.658)">
        <path id="Path_330" data-name="Path 330" d="M147.365,351.885H138.72V343.24h8.645Zm-7.172-1.473h5.7v-5.7h-5.7Z" transform="translate(-138.72 -343.24)" fill="#a2b4c3"/>
      </g>
      <path id="Path_1096" data-name="Path 1096" d="M148.44,117.84v-5.15H145.58v5.15h-5.15V120.7h5.15v5.15h2.859V120.7h5.151V117.84Z" transform="translate(-95.136 -78.008)" fill="#d9ebf3"/>
      <path id="Path_1097" data-name="Path 1097" d="M646.527,80.16a.984.984,0,0,0-1.381-.135L642.2,82.456l-3.572-2.946-3.567,2.946-3.567-2.946-3.567,2.946-3.567-2.946-3.567,2.946-3.567-2.946-3.567,2.946-2.941-2.431a.981.981,0,1,0-1.251,1.511h0L613.661,85l3.567-2.946L620.794,85l3.567-2.946L627.928,85l3.567-2.946L635.062,85l3.567-2.946L642.2,85l4.2-3.461A.981.981,0,0,0,646.527,80.16Z" transform="translate(-338.216 -60.8)" fill="#d9ebf3"/>
      <path id="Path_1098" data-name="Path 1098" d="M83.747,426.97a.984.984,0,0,0-1.382-.135l-2.946,2.431-3.572-2.946-3.567,2.946-3.567-2.946-3.567,2.946-3.567-2.946-3.567,2.946-3.567-2.946-3.567,2.946-2.941-2.431a.981.981,0,1,0-1.252,1.511h0l4.193,3.461,3.567-2.946,3.567,2.946,3.567-2.946,3.567,2.946,3.567-2.946,3.567,2.946,3.567-2.946,3.572,2.946,4.2-3.461A.977.977,0,0,0,83.747,426.97Z" transform="translate(-46.333 -240.671)" fill="#d9ebf3"/>
      <path id="Path_1099" data-name="Path 1099" d="M312.177,116.51a.984.984,0,0,0-1.382-.135l-2.946,2.431-3.572-2.946-3.567,2.946-3.567-2.946-3.567,2.946-3.567-2.946-3.567,2.946-3.567-2.946-3.567,2.946-2.941-2.431a.981.981,0,0,0-1.252,1.511h0l4.193,3.461,3.567-2.946,3.567,2.946,3.567-2.946,3.567,2.946,3.567-2.946,3.567,2.946,3.567-2.946,3.572,2.946,4.2-3.461A.973.973,0,0,0,312.177,116.51Z" transform="translate(-164.807 -79.652)" fill="#fff"/>
      <circle id="Ellipse_24" data-name="Ellipse 24" cx="7.495" cy="7.495" r="7.495" transform="translate(308.966 51.982)" fill="#d4f9bb"/>
      <circle id="Ellipse_25" data-name="Ellipse 25" cx="7.495" cy="7.495" r="7.495" transform="translate(11.58 86.471)" fill="#d4f9bb"/>
    </g>
    <g id="launch" transform="translate(2933.344 2010.534) rotate(-45)">
      <path id="Path_1068" data-name="Path 1068" d="M34.884,0a153.353,153.353,0,0,1-3.972,34.759l-.171-.04A65.35,65.35,0,0,1,.075,4.188L0,4.032A152.274,152.274,0,0,1,34.884,0Z" transform="translate(198.412 3.013)" fill="#5dba2f"/>
      <path id="Path_1069" data-name="Path 1069" d="M12.619,121.9,0,109.277q1.115-4.135,2.466-8.18A152.718,152.718,0,0,1,26.031,56.572h0A154.065,154.065,0,0,1,113.088,0l.075.156a65.35,65.35,0,0,0,30.666,30.53l.171.04a152.239,152.239,0,0,1-28.3,59.163,153.345,153.345,0,0,1-28.381,27.965,152.25,152.25,0,0,1-44.129,23.2q-4.339,1.439-8.8,2.616L22.8,132.079Z" transform="translate(85.323 7.045)" fill="#e5f5fd"/>
      <path id="Path_1070" data-name="Path 1070" d="M17.3,7.758a19.679,19.679,0,0,0,7.738,4.8A19.817,19.817,0,0,0,12.519,25.107,19.817,19.817,0,0,0,0,12.554,19.816,19.816,0,0,0,12.518,0,19.835,19.835,0,0,0,17.3,7.758Z" transform="translate(192.366 164.704)" fill="#5dba2f"/>
      <path id="Path_1071" data-name="Path 1071" d="M54.122,22.511a17.96,17.96,0,0,1,0,25.4L24.717,77.752,7.664,60.488A26.567,26.567,0,0,1,7.619,23.2,152.25,152.25,0,0,0,51.747,0l.015.02A17.967,17.967,0,0,0,54.122,22.511Z" transform="translate(120.894 124.899)" fill="#475673"/>
      <path id="Path_1072" data-name="Path 1072" d="M36.873,10.184,30.46,36.119,0,5.654,26.689,0Z" transform="translate(71.253 128.941)" fill="#5dba2f"/>
      <path id="Path_1073" data-name="Path 1073" d="M55.246,5.262A17.952,17.952,0,0,0,77.732,7.617,152.718,152.718,0,0,0,54.166,52.143a26.564,26.564,0,0,1-36.9-.422L0,34.668,29.843,5.262A17.96,17.96,0,0,1,55.246,5.262Z" transform="translate(33.622 55.999)" fill="#475673"/>
      <path id="Path_1074" data-name="Path 1074" d="M23.571,10.965a10.943,10.943,0,0,1-9.616,10.876L0,23.574,1.727,9.614a10.963,10.963,0,0,1,21.843,1.351Z" transform="translate(62.174 150.781)" fill="#fadf4a"/>
      <path id="Path_1075" data-name="Path 1075" d="M17.3,7.758a19.679,19.679,0,0,0,7.738,4.8A19.817,19.817,0,0,0,12.518,25.107,19.817,19.817,0,0,0,0,12.554a19.679,19.679,0,0,0,7.738-4.8A19.835,19.835,0,0,0,12.518,0,19.835,19.835,0,0,0,17.3,7.758Z" transform="translate(5.568 43.687)" fill="#5dba2f"/>
      <circle id="Ellipse_20" data-name="Ellipse 20" cx="19.015" cy="19.015" r="19.015" transform="translate(143.561 54.72)" fill="#5dba2f"/>
      <path id="Path_1076" data-name="Path 1076" d="M113.164.156,113.088,0A154.065,154.065,0,0,0,26.036,56.572h-.005A152.718,152.718,0,0,0,2.466,101.1Q1.117,105.142,0,109.277L10.043,119.32q1.115-4.135,2.466-8.18A152.718,152.718,0,0,1,36.074,66.615h.005A154.152,154.152,0,0,1,119.712,10.89,65.334,65.334,0,0,1,113.164.156Z" transform="translate(85.323 7.045)" fill="#a6b7d0"/>
      <g id="Group_247" data-name="Group 247" transform="translate(0 0)">
        <path id="Path_1077" data-name="Path 1077" d="M144.332,126.967A155.979,155.979,0,0,0,205.7,3.013,3.013,3.013,0,0,0,202.684,0,155.548,155.548,0,0,0,106.95,32.932,157.747,157.747,0,0,0,78.8,61.272,15,15,0,0,1,60.386,59.13a20.975,20.975,0,0,0-29.648-.015L.9,88.52a3.013,3.013,0,0,0,0,4.289l17.266,17.053a29.677,29.677,0,0,0,33.675,5.564c-.01.037-.021.073-.031.11a3.013,3.013,0,0,0,.778,2.916l8.69,8.691-21.26,4.506a3.013,3.013,0,0,0-1.506,5.078l10.7,10.7A26.735,26.735,0,0,0,41.42,144.3c-.873-.2-1.747-.352-2.593-.457a26.819,26.819,0,0,0-3.188-.213,26.452,26.452,0,0,0-18.992,7.808,27.077,27.077,0,0,0-8.091,19.34,3.013,3.013,0,0,0,2.937,3.013l2.272.058a28.812,28.812,0,0,0-5.147,21.08,3,3,0,0,0,2.958,2.416h8.231a3.013,3.013,0,1,0,0-6.026H14.319a23,23,0,0,1,8.092-18.067,3.008,3.008,0,0,0-1.917-5.264l-5.7-.144a21.123,21.123,0,0,1,6.1-12.128,20.538,20.538,0,0,1,14.544-6.061H35.6c.48,0,.961.029,1.441.065a13.9,13.9,0,0,0-6.74,10.307l-1.728,13.96a3.013,3.013,0,0,0,2.99,3.383,3.062,3.062,0,0,0,.37-.023l13.96-1.728a13.945,13.945,0,0,0,10.31-6.762c.043.543.073,1.09.074,1.642a20.714,20.714,0,0,1-6.1,14.738,3.013,3.013,0,1,0,4.26,4.261,26.838,26.838,0,0,0,7.66-22.333c-.1-.84-.247-1.694-.435-2.54a26.756,26.756,0,0,0-3.15-7.9l10.468,10.467a3.013,3.013,0,0,0,5.055-1.406l5.133-20.754,7.814,7.815a3.016,3.016,0,0,0,2.9.782l.539-.151A29.671,29.671,0,0,0,95.8,187.5l17.051,17.372a2.791,2.791,0,0,0,4.288,0L146.534,175a21.032,21.032,0,0,0,0-29.69,15.041,15.041,0,0,1-2.2-18.341ZM199.641,6.056a149.723,149.723,0,0,1-3.06,27.267A62.614,62.614,0,0,1,172.294,9.139a149.326,149.326,0,0,1,27.346-3.083ZM22.4,105.575,7.3,90.668l27.68-27.277a14.949,14.949,0,0,1,21.14,0,21.045,21.045,0,0,0,16.81,6.029,156.193,156.193,0,0,0-18.358,37.015A23.616,23.616,0,0,1,22.4,105.575Zm29.426,58.338a7.938,7.938,0,0,1-6.675,5.724l-10.122,1.255,1.255-10.12a7.952,7.952,0,1,1,15.544,3.143Zm17.637-4.759L46.7,136.392l19.661-4.168,7.825,7.824ZM90,147.348,58.085,115.433q.8-2.842,1.724-5.648c.018-.018.037-.034.055-.05l-.029-.029a151.351,151.351,0,0,1,93.428-95.287q6.39-2.241,12.933-3.881a68.64,68.64,0,0,0,28.99,28.876A149.839,149.839,0,0,1,90,147.348Zm52.259,23.35L115,198.363,100.09,183.27a23.613,23.613,0,0,1-.518-32.554,154.849,154.849,0,0,0,36.673-17.98,21.051,21.051,0,0,0,6.029,16.806,14.97,14.97,0,0,1-.015,21.156Z" transform="translate(30.613 0)" fill="#284268"/>
        <path id="Path_1078" data-name="Path 1078" d="M12.635.084A20.939,20.939,0,0,1,7.759.647H3.013a3.013,3.013,0,0,0,0,6.026H7.759a26.955,26.955,0,0,0,6.277-.729,3.013,3.013,0,1,0-1.4-5.86Z" transform="translate(58.282 190.671)" fill="#284268"/>
        <path id="Path_1079" data-name="Path 1079" d="M3.016,11.453a3,3,0,0,0,1.92-.692c2.147-1.778,4.276-3.64,6.327-5.534A3.013,3.013,0,1,0,7.178.8C5.2,2.62,3.156,4.41,1.091,6.121a3.013,3.013,0,0,0,1.923,5.333Z" transform="translate(189.143 117.053)" fill="#284268"/>
        <path id="Path_1080" data-name="Path 1080" d="M37.063.13a3.013,3.013,0,0,0-3.756,2.012,149.148,149.148,0,0,1-9.773,24.337c-1.444,2.844-3,5.681-4.63,8.432-2,3.38-4.163,6.725-6.427,9.942A150.9,150.9,0,0,1,.783,59.443,3.013,3.013,0,1,0,5.243,63.5,157.055,157.055,0,0,0,17.4,48.32c2.355-3.345,4.6-6.824,6.686-10.341,1.694-2.862,3.314-5.813,4.818-8.772A155.226,155.226,0,0,0,39.073,3.885,3.013,3.013,0,0,0,37.063.13Z" transform="translate(204.857 49.02)" fill="#284268"/>
        <path id="Path_1081" data-name="Path 1081" d="M3.015,8.333a3,3,0,0,0,2.13-.882L7.452,5.143A3.013,3.013,0,1,0,3.192.882L.882,3.19a3.013,3.013,0,0,0,2.13,5.143Z" transform="translate(1.007 114.949)" fill="#284268"/>
        <path id="Path_1082" data-name="Path 1082" d="M5.143,15.453,15.453,5.144A3.013,3.013,0,0,0,11.192.882L.883,11.191a3.013,3.013,0,1,0,4.26,4.261Z" transform="translate(9.861 98.095)" fill="#284268"/>
        <path id="Path_1083" data-name="Path 1083" d="M.883,17.262a3.013,3.013,0,0,0,4.261,0L17.262,5.143A3.013,3.013,0,0,0,13,.883L.882,13a3.013,3.013,0,0,0,0,4.261Z" transform="translate(5.547 116.399)" fill="#284268"/>
        <path id="Path_1084" data-name="Path 1084" d="M3.012,10.505a3,3,0,0,0,2.13-.882l4.48-4.48A3.013,3.013,0,1,0,5.362.882L.882,5.362a3.013,3.013,0,0,0,2.13,5.143Z" transform="translate(23.591 105.992)" fill="#284268"/>
        <path id="Path_1085" data-name="Path 1085" d="M14.27.883.883,14.269A3.013,3.013,0,1,0,5.143,18.53L18.529,5.143A3.013,3.013,0,1,0,14.269.882Z" transform="translate(0 136.478)" fill="#284268"/>
        <path id="Path_1086" data-name="Path 1086" d="M20.825.882a3.013,3.013,0,0,0-4.26,0L.883,16.563a3.013,3.013,0,1,0,4.26,4.261L20.825,5.141a3.013,3.013,0,0,0,0-4.259Z" transform="translate(20.287 113.895)" fill="#284268"/>
        <path id="Path_1087" data-name="Path 1087" d="M3.192.885.882,3.192A3.013,3.013,0,1,0,5.144,7.453L7.45,5.143A3.013,3.013,0,1,0,3.189.883Z" transform="translate(97.196 211.134)" fill="#284268"/>
        <path id="Path_1088" data-name="Path 1088" d="M11.192.883.883,11.192a3.013,3.013,0,1,0,4.26,4.261L15.452,5.143A3.013,3.013,0,1,0,11.192.882Z" transform="translate(106.048 194.282)" fill="#284268"/>
        <path id="Path_1089" data-name="Path 1089" d="M.882,17.261a3.013,3.013,0,0,0,4.261,0L17.261,5.143A3.013,3.013,0,1,0,13,.882L.882,13A3.013,3.013,0,0,0,.882,17.261Z" transform="translate(101.734 212.587)" fill="#284268"/>
        <path id="Path_1090" data-name="Path 1090" d="M.883,9.624a3.013,3.013,0,0,0,4.261,0l4.48-4.48A3.013,3.013,0,0,0,5.362.883L.883,5.362A3.013,3.013,0,0,0,.883,9.624Z" transform="translate(119.777 202.181)" fill="#284268"/>
        <path id="Path_1091" data-name="Path 1091" d="M14.269.882.883,14.268a3.013,3.013,0,1,0,4.26,4.261L18.53,5.143A3.013,3.013,0,1,0,14.269.882Z" transform="translate(96.187 232.666)" fill="#284268"/>
        <path id="Path_1092" data-name="Path 1092" d="M16.566.882.883,16.565a3.013,3.013,0,1,0,4.261,4.261L20.826,5.143A3.013,3.013,0,1,0,16.565.882Z" transform="translate(116.474 210.082)" fill="#284268"/>
        <path id="Path_1093" data-name="Path 1093" d="M29,12.707A16.888,16.888,0,0,1,18.387,2.061a3.013,3.013,0,0,0-5.717,0A16.888,16.888,0,0,1,2.057,12.707a3.013,3.013,0,0,0,0,5.714A16.888,16.888,0,0,1,12.67,29.067a3.013,3.013,0,0,0,5.717,0A16.888,16.888,0,0,1,29,18.421a3.013,3.013,0,0,0,0-5.714ZM15.529,21.435a23.064,23.064,0,0,0-5.859-5.871,23.062,23.062,0,0,0,5.859-5.871,23.064,23.064,0,0,0,5.859,5.871,23.065,23.065,0,0,0-5.859,5.871Z" transform="translate(189.356 161.693)" fill="#284268"/>
        <path id="Path_1094" data-name="Path 1094" d="M2.057,18.421A16.888,16.888,0,0,1,12.67,29.067a3.013,3.013,0,0,0,5.717,0A16.888,16.888,0,0,1,29,18.421a3.013,3.013,0,0,0,0-5.714A16.888,16.888,0,0,1,18.387,2.061a3.013,3.013,0,0,0-5.717,0A16.888,16.888,0,0,1,2.057,12.707a3.013,3.013,0,0,0,0,5.714ZM15.529,9.694a23.065,23.065,0,0,0,5.859,5.871,23.065,23.065,0,0,0-5.859,5.871,23.064,23.064,0,0,0-5.859-5.871,23.065,23.065,0,0,0,5.859-5.871Z" transform="translate(2.557 40.676)" fill="#284268"/>
        <ellipse id="Ellipse_21" data-name="Ellipse 21" cx="5.516" cy="5.524" rx="5.516" ry="5.524" transform="translate(51.756 19.082)" fill="#284268"/>
        <ellipse id="Ellipse_22" data-name="Ellipse 22" cx="5.516" cy="5.524" rx="5.516" ry="5.524" transform="translate(189.847 215.421)" fill="#284268"/>
        <path id="Path_1095" data-name="Path 1095" d="M22.014,0A22.029,22.029,0,1,0,42.366,13.6,22.024,22.024,0,0,0,22.014,0ZM33.33,33.345a16,16,0,1,1,0-22.632A16,16,0,0,1,33.33,33.345Z" transform="translate(140.562 51.705)" fill="#284268"/>
      </g>
    </g>
  </g>
</svg>
