<?xml version="1.0" encoding="utf-8"?>
<!-- Generator: Adobe Illustrator 22.1.0, SVG Export Plug-In . SVG Version: 6.00 Build 0)  -->
<svg version="1.1" id="Layer_1" xmlns="http://www.w3.org/2000/svg" xmlns:xlink="http://www.w3.org/1999/xlink" x="0px" y="0px"
	 viewBox="0 0 180.1 184.7" style="enable-background:new 0 0 180.1 184.7;" xml:space="preserve">
<style type="text/css">
	.st0{stroke:#FFFFFF;stroke-width:1.6199;stroke-miterlimit:10;}
	.st1{stroke:#FFFFFF;stroke-width:0.972;stroke-miterlimit:10;}
</style>
<g>
	<g>
		<g>
			<path class="st0" d="M178,112.8l-17.1-13.4c0.2-2.1,0.4-4.5,0.4-7c0-2.6-0.2-5-0.4-7L178,71.9c3.2-2.5,4.1-7,2-10.7l-17.8-30.8
				c-1.9-3.5-6.3-5.2-10.3-3.7l-20.2,8.1c-3.9-2.8-7.9-5.2-12.1-7l-3.1-21.4c-0.5-4.1-4-7.2-8.2-7.2H72.6c-4.2,0-7.7,3.1-8.2,7.1
				l-3.1,21.5c-4.1,1.8-8.1,4.2-12.1,7l-20.3-8.1c-3.9-1.5-8.3,0.1-10.2,3.6L0.8,61.2c-2.1,3.6-1.2,8.2,2,10.7L20,85.3
				c-0.3,2.6-0.4,4.9-0.4,7c0,2.1,0.1,4.4,0.4,7L2.8,112.8c-3.2,2.5-4,7-2,10.7l17.8,30.8c1.9,3.5,6.3,5.2,10.3,3.7l20.2-8.1
				c3.9,2.8,7.9,5.1,12.1,7l3.1,21.4c0.5,4.1,4,7.1,8.2,7.1h35.7c4.2,0,7.7-3.1,8.2-7.1l3.1-21.5c4.1-1.8,8.1-4.2,12.1-7l20.3,8.1
				c3.9,1.5,8.3-0.1,10.2-3.6l17.9-31C182,119.8,181.2,115.3,178,112.8z M173.3,119.6l-18.5,31.2l-22.2-8.9
				c-1.3-0.5-2.7-0.3-3.8,0.5c-4.8,3.6-9.5,6.3-14.2,8.3c-1.3,0.5-2.2,1.7-2.4,3l-3.9,24.1L72,177.3l-3.4-23.7
				c-0.2-1.4-1.1-2.5-2.4-3c-5-2-9.7-4.8-14.2-8.2c-0.7-0.5-1.5-0.8-2.4-0.8c-0.5,0-1,0.1-1.5,0.3l-22.9,8.6L7.6,119.7
				c-0.2-0.3-0.1-0.7,0.1-0.8l18.8-14.7c1.1-0.8,1.6-2.2,1.5-3.5c-0.4-3.3-0.6-5.9-0.6-8.3c0-2.4,0.2-5,0.6-8.3
				c0.2-1.4-0.4-2.7-1.5-3.5L7.5,65.1L26,33.9l22.2,8.9c1.3,0.5,2.7,0.3,3.8-0.5c4.8-3.6,9.5-6.3,14.2-8.3c1.3-0.5,2.2-1.7,2.4-3
				L72.6,7l36.2,0.4l3.4,23.7c0.2,1.4,1.1,2.5,2.4,3c5,2,9.7,4.8,14.2,8.2c1.1,0.8,2.5,1,3.8,0.5l22.9-8.6L173.2,65
				c0.2,0.3,0.1,0.6-0.1,0.8l-18.8,14.7c-1.1,0.8-1.6,2.2-1.5,3.5c0.3,2.4,0.6,5.2,0.6,8.3c0,3.1-0.3,5.9-0.6,8.3
				c-0.2,1.4,0.4,2.7,1.5,3.5l18.8,14.7C173.4,119,173.4,119.4,173.3,119.6z"/>
			<path class="st1" d="M90.4,58.4c-18.7,0-34,15.2-34,34s15.2,34,34,34s34-15.2,34-34S109.1,58.4,90.4,58.4z M90.4,119.5
				c-15,0-27.2-12.2-27.2-27.2s12.2-27.2,27.2-27.2s27.2,12.2,27.2,27.2S105.4,119.5,90.4,119.5z"/>
		</g>
	</g>
</g>
</svg>
